#!OML:ASF H:\Pregnant\Project 1\Capture day 1\Session 1\femalepreg.ASF
:FULLY-SPECIFIED
:DEGREES
614
root 6.40949 15.5523 13.1696 27.2619 -9.13474 -5.95212
lowerback -9.9282 -0.405523 -12.5996
upperback -5.13694 0.538699 -0.631265
thorax -0.00749669 0.498878 6.47124
lowerneck -27.5622 -7.71329 -3.74344
upperneck 12.217 -12.1031 14.756
head 9.5924 -4.19619 3.77268
rclavicle 4.41302e-014 -3.49861e-014
rhumerus -31.4502 17.8346 -92.787
rradius 45.3745
rwrist 0.167141
rhand -5.47769 -8.50446
rfingers 7.12502
rthumb 20.3344 -37.4599
lclavicle 4.41302e-014 -3.49861e-014
lhumerus -28.1394 -14.1687 75.8398
lradius 28.945
lwrist 37.1506
lhand -26.3591 -1.81352
lfingers 7.12502
lthumb 0.198882 28.1661
rfemur -51.2925 23.0233 15.2972
rtibia 47.1431
rfoot -19.7071 -10.0289
rtoes -21.1738
lfemur -41.9603 -0.662119 -16.1619
ltibia 36.0785
lfoot -13.4107 18.8996
ltoes -12.7561
615
root 6.41031 15.5418 13.1796 27.1872 -8.99914 -5.83508
lowerback -10.0392 -0.462068 -12.5447
upperback -5.13062 0.477117 -0.720616
thorax 0.0758124 0.460419 6.34046
lowerneck -27.5288 -7.75549 -3.79837
upperneck 12.3687 -12.1572 14.7195
head 9.64543 -4.22149 3.76021
rclavicle 3.02153e-014 -7.79236e-014
rhumerus -31.748 18.4072 -93.0135
rradius 45.3893
rwrist -0.189212
rhand -5.47704 -8.65117
rfingers 7.12502
rthumb 20.335 -37.6066
lclavicle 3.02153e-014 -7.79236e-014
lhumerus -27.924 -13.9181 75.3886
lradius 28.8684
lwrist 37.2083
lhand -26.5275 -1.54123
lfingers 7.12502
lthumb 0.0362729 28.4385
rfemur -51.0559 23.0493 15.9466
rtibia 46.9311
rfoot -19.502 -10.0821
rtoes -21.314
lfemur -41.9658 -0.844517 -16.2406
ltibia 36.2198
lfoot -13.5064 18.9293
ltoes -12.8007
616
root 6.41032 15.5317 13.1908 27.1157 -8.86171 -5.69779
lowerback -10.1725 -0.519164 -12.4916
upperback -5.12934 0.417935 -0.811731
thorax 0.165073 0.423154 6.20908
lowerneck -27.4858 -7.79489 -3.84882
upperneck 12.5215 -12.2026 14.6539
head 9.69344 -4.24623 3.73854
rclavicle 4.37326e-015 -2.22639e-014
rhumerus -32.0516 18.9306 -93.2212
rradius 45.3674
rwrist -0.492898
rhand -5.54594 -8.7825
rfingers 7.12502
rthumb 20.2688 -37.7449
lclavicle 4.37326e-015 -2.22639e-014
lhumerus -27.7119 -13.639 74.9505
lradius 28.7894
lwrist 37.2219
lhand -26.6792 -1.13199
lfingers 7.12502
lthumb -0.110237 28.8477
rfemur -50.8003 23.0197 16.5689
rtibia 46.6759
rfoot -19.1519 -10.0483
rtoes -20.9999
lfemur -41.9521 -1.01434 -16.3466
ltibia 36.319
lfoot -13.5823 18.9381
ltoes -12.8819
617
root 6.4095 15.522 13.203 27.0452 -8.73237 -5.54137
lowerback -10.3209 -0.573684 -12.4448
upperback -5.14056 0.363998 -0.9031
thorax 0.247697 0.389669 6.08136
lowerneck -27.4145 -7.83147 -3.90711
upperneck 12.6762 -12.2369 14.568
head 9.73481 -4.26986 3.7134
rclavicle -4.01545e-014 4.13472e-014
rhumerus -32.3718 19.4022 -93.4136
rradius 45.3058
rwrist -0.73158
rhand -5.69348 -8.87941
rfingers 7.12502
rthumb 20.127 -37.8568
lclavicle -4.01545e-014 4.13472e-014
lhumerus -27.5239 -13.3323 74.5342
lradius 28.7152
lwrist 37.1995
lhand -26.8423 -0.686363
lfingers 7.12502
lthumb -0.267777 29.2932
rfemur -50.5292 22.9485 17.1551
rtibia 46.391
rfoot -18.6693 -9.92826
rtoes -19.9401
lfemur -41.9124 -1.16954 -16.4796
ltibia 36.3755
lfoot -13.6489 18.9261
ltoes -12.9522
618
root 6.40801 15.5132 13.2161 26.9682 -8.61226 -5.36304
lowerback -10.4789 -0.625902 -12.4044
upperback -5.1559 0.314824 -0.995766
thorax 0.329724 0.358956 5.95619
lowerneck -27.3337 -7.86583 -3.97988
upperneck 12.8361 -12.2607 14.4704
head 9.77521 -4.29099 3.68858
rclavicle 6.36111e-015 4.77083e-015
rhumerus -32.6974 19.8266 -93.5898
rradius 45.2061
rwrist -0.902854
rhand -5.89531 -8.957
rfingers 7.12502
rthumb 19.933 -37.9547
lclavicle 6.36111e-015 4.77083e-015
lhumerus -27.3495 -13.005 74.1383
lradius 28.6465
lwrist 37.1576
lhand -27.0173 -0.296472
lfingers 7.12502
lthumb -0.436798 29.6828
rfemur -50.2435 22.8516 17.6907
rtibia 46.0974
rfoot -18.0264 -9.83541
rtoes -17.9971
lfemur -41.8328 -1.31651 -16.6402
ltibia 36.3769
lfoot -13.7002 18.898
ltoes -12.9985
619
root 6.4061 15.506 13.2301 26.8766 -8.50454 -5.16141
lowerback -10.6422 -0.673177 -12.3686
upperback -5.17086 0.273492 -1.08982
thorax 0.413131 0.332196 5.83276
lowerneck -27.2403 -7.89876 -4.06557
upperneck 12.9946 -12.2738 14.3571
head 9.81119 -4.31043 3.66238
rclavicle -1.35174e-014 2.70347e-014
rhumerus -33.0175 20.1921 -93.7432
rradius 45.0669
rwrist -1.00385
rhand -6.16234 -9.02403
rfingers 7.12502
rthumb 19.6763 -38.0482
lclavicle -1.35174e-014 2.70347e-014
lhumerus -27.1888 -12.6439 73.7642
lradius 28.5874
lwrist 37.0864
lhand -27.2039 -0.0552541
lfingers 7.12502
lthumb -0.617055 29.9236
rfemur -49.9391 22.7495 18.1602
rtibia 45.8173
rfoot -17.263 -9.94691
rtoes -15.1761
lfemur -41.7011 -1.45688 -16.832
ltibia 36.3157
lfoot -13.7205 18.8613
ltoes -13.0872
620
root 6.40377 15.5006 13.2447 26.7659 -8.41072 -4.93395
lowerback -10.8081 -0.714305 -12.3366
upperback -5.18217 0.241483 -1.18936
thorax 0.499762 0.309808 5.70654
lowerneck -27.1299 -7.93042 -4.16896
upperneck 13.1467 -12.2764 14.2383
head 9.84154 -4.32785 3.63925
rclavicle 7.55382e-015 -1.90833e-014
rhumerus -33.328 20.509 -93.8778
rradius 44.8899
rwrist -1.0515
rhand -6.46423 -9.07435
rfingers 7.12502
rthumb 19.386 -38.128
lclavicle 7.55382e-015 -1.90833e-014
lhumerus -27.0349 -12.2602 73.4074
lradius 28.5343
lwrist 36.991
lhand -27.3942 0.00162264
lfingers 7.12502
lthumb -0.80083 29.9799
rfemur -49.6205 22.6633 18.5433
rtibia 45.5711
rfoot -16.4164 -10.4443
rtoes -11.8631
lfemur -41.507 -1.59587 -17.0557
ltibia 36.1866
lfoot -13.7144 18.8174
ltoes -13.1892
